<svg width="245" height="40" viewBox="0 0 245 40" fill="none" xmlns="http://www.w3.org/2000/svg">
<path d="M5.57516 31.2419C6.42483 31.7648 7.27451 32.1569 8.2549 32.4837C9.16993 32.7452 10.1503 32.9413 11.1307 32.9413C12.7647 32.9413 13.9412 32.5491 14.7255 31.8301C15.5098 31.1112 15.902 29.8694 15.902 28.2354V27.5164C15.183 28.17 14.3987 28.5622 13.4183 28.7583C12.5033 28.9543 11.5882 29.0197 10.6732 29.0197C9.10457 29.0197 7.73202 28.7583 6.55555 28.3007C5.37908 27.7779 4.33333 27.1243 3.54902 26.2092C2.69935 25.2942 2.11111 24.2484 1.65359 23.0066C1.19608 21.7648 1 20.3922 1 18.889C1 16.9935 1.3268 15.3596 1.91503 13.8563C2.50327 12.353 3.4183 11.1766 4.52941 10.1962C5.64052 9.21577 7.01307 8.43146 8.5817 7.90858C10.1503 7.38571 11.8497 7.12427 13.6797 7.12427C15.3791 7.12427 17.0784 7.25499 18.7778 7.58178C20.4118 7.90858 22.0457 8.3661 23.6797 8.88897V27.4511C23.6797 31.5687 22.6993 34.5099 20.6732 36.2746C18.647 38.0393 15.7059 38.9543 11.8497 38.9543C10.2157 38.9543 8.5817 38.7583 7.01307 38.4315C5.44444 38.1047 3.94117 37.4511 2.56863 36.6014L5.57516 31.2419ZM15.902 13.7909C15.0523 13.5295 14.2026 13.3988 13.4183 13.3988C12.634 13.3988 11.915 13.5295 11.3268 13.7909C10.7386 14.0524 10.281 14.4445 9.88888 14.902C9.49673 15.3596 9.23529 15.8824 9.10457 16.536C8.90849 17.1896 8.84313 17.8432 8.84313 18.5622C8.84313 20.0001 9.16993 21.1112 9.88888 21.7648C10.6078 22.4837 11.4575 22.8105 12.5033 22.8105C13.549 22.8105 14.3333 22.4837 14.9869 21.8955C15.6405 21.3073 15.9673 20.3269 15.9673 19.0851V13.7909H15.902Z" fill="#1D1D1B"/>
<path d="M25.2483 7.51642H32.83L33.0915 10.2615C33.6797 9.41185 34.464 8.69289 35.379 8.0393C36.2941 7.45106 37.4052 7.12427 38.7124 7.12427C39.3006 7.12427 39.8888 7.12427 40.281 7.18963C40.7385 7.25499 41.1307 7.32035 41.4575 7.45106L40.4117 14.1177C39.6928 13.9217 38.9085 13.8563 38.1241 13.8563C34.7255 13.8563 33.0261 15.6864 33.0261 19.4118V29.1504H25.183V7.51642H25.2483Z" fill="#1D1D1B"/>
<path d="M62.83 27.647C62.4379 27.8431 61.9804 28.1045 61.3921 28.366C60.8039 28.6274 60.1503 28.8889 59.366 29.0849C58.5817 29.3464 57.732 29.5425 56.7516 29.6732C55.7712 29.8693 54.7908 29.9346 53.6797 29.9346C49.6928 29.9346 46.6209 28.9542 44.464 26.9281C42.3072 24.9019 41.2614 22.0915 41.2614 18.4967C41.2614 17.0588 41.5229 15.6209 41.9804 14.2483C42.4379 12.8758 43.1568 11.634 44.0719 10.5229C44.9869 9.41174 46.2287 8.56207 47.6666 7.84311C49.1045 7.18952 50.8039 6.79736 52.6993 6.79736C54.2026 6.79736 55.5751 7.0588 56.8823 7.58168C58.1895 8.10455 59.366 8.88887 60.281 9.86926C61.2614 10.915 62.0457 12.2222 62.5686 13.7255C63.1568 15.2941 63.4183 17.1242 63.4183 19.2157V20.7189H48.7777C48.7777 21.1111 48.9085 21.5032 49.1045 21.8954C49.3006 22.2876 49.5621 22.6797 49.9542 23.0065C50.3464 23.3333 50.9346 23.6601 51.6536 23.8562C52.3725 24.0523 53.2222 24.183 54.2026 24.183C55.5098 24.183 56.7516 23.9869 57.8627 23.6601C58.9738 23.3333 59.8235 22.9411 60.4117 22.6144L62.83 27.647ZM56.5555 16.0784C56.5555 15.6862 56.4902 15.2941 56.2941 14.9019C56.1634 14.5098 55.9019 14.1176 55.5751 13.7908C55.2483 13.464 54.8562 13.1372 54.3987 12.9412C53.9411 12.6797 53.3529 12.6144 52.634 12.6144C51.9804 12.6144 51.3921 12.7451 50.9346 12.9412C50.4117 13.2026 50.0196 13.464 49.7581 13.7908C49.4313 14.1176 49.2353 14.5098 49.0392 14.9019C48.9085 15.2941 48.7777 15.6862 48.7777 16.0784H56.5555Z" fill="#1D1D1B"/>
<path d="M77.6013 27.1895C76.6209 28.2353 75.6405 28.9542 74.5948 29.3464C73.6144 29.7385 72.3725 29.9346 70.8693 29.9346C70.1503 29.9346 69.4314 29.8039 68.5817 29.6078C67.7974 29.4117 67.0131 29.0849 66.3595 28.5621C65.7059 28.0392 65.1176 27.3856 64.6601 26.5359C64.2026 25.6862 64.0065 24.6405 64.0065 23.3333C64.0065 22.0261 64.268 20.915 64.8562 19.8693C65.4444 18.8889 66.1634 18.0392 67.1438 17.3856C68.1242 16.732 69.2353 16.2091 70.4771 15.8823C71.7189 15.5555 73.0915 15.3595 74.464 15.3595C75.183 15.3595 75.7059 15.3595 76.1634 15.4248C76.5555 15.4248 77.0784 15.4902 77.6013 15.5555V15.1634C77.6013 14.6405 77.4706 14.183 77.2745 13.7908C77.0131 13.464 76.7516 13.1372 76.4248 12.9412C76.098 12.7451 75.7059 12.6144 75.2483 12.549C74.8562 12.4836 74.3987 12.4183 74.0065 12.4183C72.634 12.4183 71.3921 12.6144 70.3464 12.9412C69.3006 13.268 68.451 13.7255 67.7974 14.183L64.8562 9.73854C65.7712 9.01958 67.0784 8.30063 68.7778 7.7124C70.4771 7.12416 72.5686 6.79736 75.183 6.79736C76.6863 6.79736 78.0588 6.99344 79.3006 7.3856C80.5425 7.77775 81.5882 8.36599 82.5032 9.1503C83.4183 9.93462 84.0719 10.915 84.5947 12.0261C85.1176 13.2026 85.3137 14.5098 85.3137 16.0784V29.1503H77.9281L77.6013 27.1895ZM77.6013 19.8693C77.0784 19.7385 76.3595 19.6732 75.4444 19.6732C74.1372 19.6732 73.2222 19.9346 72.5686 20.4575C71.9804 20.9804 71.6536 21.5686 71.6536 22.2876C71.6536 23.8562 72.5033 24.7059 74.268 24.7059C74.6601 24.7059 75.0523 24.6405 75.4444 24.5751C75.8366 24.4444 76.2287 24.3137 76.4902 24.0523C76.817 23.7908 77.0784 23.464 77.2745 23.0065C77.4706 22.549 77.6013 22.0261 77.6013 21.3725V19.8693Z" fill="#1D1D1B"/>
<path d="M89.4313 13.5294H86.2287V7.51637H89.4313V1.5033H97.2744V7.51637H102.634V13.5294H97.2744V21.1765C97.2744 22.9412 98.1241 23.8562 99.8235 23.8562C100.346 23.8562 100.804 23.7255 101.261 23.5294C101.719 23.3334 102.176 23.0719 102.569 22.8105L105.64 27.5817C104.66 28.366 103.549 28.9543 102.372 29.4118C101.196 29.8693 99.9542 30.0654 98.647 30.0654C96.8823 30.0654 95.4444 29.8039 94.2026 29.3464C93.0261 28.8236 92.0457 28.17 91.3267 27.3203C90.6078 26.4706 90.0849 25.3595 89.8235 24.183C89.562 22.9412 89.366 21.634 89.366 20.1961V13.5294H89.4313Z" fill="#1D1D1B"/>
<path d="M125.771 27.647C125.379 27.8431 124.921 28.1045 124.333 28.366C123.745 28.6274 123.091 28.8889 122.307 29.0849C121.523 29.3464 120.673 29.5425 119.693 29.6732C118.712 29.8693 117.732 29.9346 116.621 29.9346C112.634 29.9346 109.562 28.9542 107.405 26.9281C105.248 24.9019 104.203 22.0915 104.203 18.4967C104.203 17.0588 104.464 15.6209 104.921 14.2483C105.379 12.8758 106.098 11.634 107.013 10.5229C107.928 9.41174 109.17 8.56207 110.608 7.84311C112.046 7.18952 113.745 6.79736 115.64 6.79736C117.144 6.79736 118.516 7.0588 119.823 7.58168C121.131 8.10455 122.307 8.88887 123.222 9.86926C124.203 10.915 124.987 12.2222 125.51 13.7255C126.033 15.2941 126.359 17.1242 126.359 19.2157V20.7189H111.653C111.653 21.1111 111.784 21.5032 111.98 21.8954C112.176 22.2876 112.438 22.6797 112.83 23.0065C113.222 23.3333 113.81 23.6601 114.529 23.8562C115.248 24.0523 116.098 24.183 117.078 24.183C118.386 24.183 119.627 23.9869 120.738 23.6601C121.85 23.3333 122.699 22.9411 123.287 22.6144L125.771 27.647ZM119.431 16.0784C119.431 15.6862 119.366 15.2941 119.17 14.9019C119.039 14.5098 118.778 14.1176 118.451 13.7908C118.124 13.464 117.732 13.1372 117.274 12.9412C116.817 12.6797 116.229 12.6144 115.51 12.6144C114.856 12.6144 114.268 12.7451 113.81 12.9412C113.287 13.2026 112.895 13.464 112.634 13.7908C112.307 14.1176 112.111 14.5098 111.915 14.9019C111.784 15.2941 111.653 15.6862 111.653 16.0784H119.431Z" fill="#1D1D1B"/>
<path d="M128.189 7.51642H135.771L136.033 10.2615C136.621 9.41185 137.405 8.69289 138.32 8.0393C139.235 7.45106 140.346 7.12427 141.653 7.12427C142.242 7.12427 142.83 7.12427 143.222 7.18963C143.68 7.25499 144.072 7.32035 144.399 7.45106L143.353 14.1177C142.634 13.9217 141.849 13.8563 141.065 13.8563C137.666 13.8563 135.967 15.6864 135.967 19.4118V29.1504H128.124V7.51642H128.189Z" fill="#1D1D1B"/>
<path d="M162.046 32.4183C162.503 32.6797 162.895 32.8758 163.418 33.0719C163.941 33.268 164.333 33.3333 164.856 33.3333C166.229 33.3333 167.078 33.0065 167.47 32.2876C167.863 31.5686 168.059 30.6536 168.059 29.4118V9.08497H175.902V28.4967C175.902 30.1307 175.771 31.6993 175.51 33.0719C175.248 34.4444 174.725 35.6863 174.006 36.732C173.287 37.7778 172.307 38.5621 171.065 39.1503C169.823 39.7386 168.255 40 166.359 40C165.052 40 163.745 39.8039 162.438 39.4118C161.196 39.0196 160.085 38.4967 159.17 37.7124L162.046 32.4183ZM167.667 0H176.163V6.14379H167.667V0Z" fill="#1D1D1B"/>
<path d="M177.274 19.9346C177.274 18.366 177.536 16.7973 178.124 15.4248C178.712 13.9869 179.497 12.8104 180.477 11.7647C181.523 10.7189 182.699 9.86923 184.137 9.281C185.575 8.69276 187.144 8.36597 188.843 8.36597C190.542 8.36597 192.176 8.69276 193.549 9.281C194.987 9.86923 196.163 10.7189 197.209 11.7647C198.255 12.8104 199.039 14.0522 199.562 15.4248C200.15 16.8627 200.412 18.366 200.412 19.9346C200.412 21.5686 200.15 23.0718 199.562 24.5098C198.974 25.8823 198.189 27.1241 197.209 28.1699C196.163 29.2156 194.987 30.0653 193.549 30.6535C192.111 31.2418 190.542 31.5686 188.843 31.5686C187.144 31.5686 185.51 31.2418 184.137 30.6535C182.764 30.0653 181.523 29.2156 180.477 28.1699C179.431 27.1241 178.647 25.8823 178.124 24.5098C177.536 23.0718 177.274 21.5686 177.274 19.9346ZM188.908 24.7058C190.215 24.7058 191.261 24.2483 191.98 23.3986C192.764 22.4836 193.157 21.3725 193.157 20C193.157 18.6274 192.764 17.4509 191.98 16.6013C191.196 15.6862 190.15 15.2941 188.908 15.2941C187.601 15.2941 186.555 15.7516 185.836 16.6013C185.052 17.5163 184.66 18.6274 184.66 20C184.66 21.3725 185.052 22.549 185.836 23.3986C186.555 24.2483 187.601 24.7058 188.908 24.7058Z" fill="#1D1D1B"/>
<path d="M201.849 0H209.693V10.8497C210.085 10.3922 210.542 10 211.065 9.73856C211.588 9.47712 212.111 9.21569 212.568 9.08497C213.091 8.88889 213.549 8.82353 214.006 8.75817C214.464 8.69281 214.856 8.69281 215.117 8.69281C216.621 8.69281 217.993 9.01961 219.17 9.60784C220.346 10.1961 221.327 10.9804 222.111 12.0261C222.895 13.0065 223.483 14.183 223.941 15.4902C224.333 16.7974 224.595 18.1046 224.595 19.5425C224.595 23.3987 223.483 26.3399 221.261 28.4967C219.039 30.5882 215.771 31.634 211.457 31.634C209.627 31.634 207.797 31.4379 206.098 31.1111C204.399 30.719 202.961 30.3268 201.849 29.9346V0ZM209.627 24.7059C210.346 25.0327 211.261 25.1634 212.372 25.1634C213.614 25.1634 214.66 24.7059 215.444 23.8562C216.229 23.0065 216.621 21.634 216.621 19.7386C216.621 19.2157 216.555 18.7582 216.425 18.1699C216.294 17.6471 216.098 17.1242 215.836 16.732C215.575 16.2745 215.183 15.9477 214.791 15.6863C214.333 15.4248 213.876 15.2941 213.287 15.2941C211.98 15.2941 211.065 15.6863 210.477 16.4706C209.889 17.2549 209.627 18.3007 209.627 19.4771V24.7059Z" fill="#1D1D1B"/>
<path d="M227.601 23.5947C227.993 23.9215 228.451 24.183 228.974 24.4444C229.497 24.7058 230.019 24.9019 230.608 25.098C231.196 25.2941 231.719 25.4248 232.307 25.5555C232.895 25.6862 233.353 25.6862 233.81 25.6862C234.595 25.6862 235.314 25.6209 235.902 25.4248C236.49 25.2287 236.751 24.8366 236.751 24.1176C236.751 23.5947 236.425 23.2026 235.771 22.9411C235.117 22.6797 233.941 22.2222 232.242 21.6993C231.261 21.4379 230.412 21.1111 229.627 20.7189C228.843 20.3268 228.124 19.8692 227.536 19.3464C226.948 18.8235 226.49 18.2352 226.163 17.5163C225.836 16.7973 225.706 16.013 225.706 15.098C225.706 14.183 225.902 13.3333 226.359 12.4836C226.817 11.6993 227.47 10.9803 228.255 10.3268C229.104 9.73852 230.085 9.21564 231.196 8.88884C232.372 8.56205 233.614 8.36597 234.987 8.36597C236.751 8.36597 238.385 8.56205 239.823 9.01956C241.261 9.47708 242.634 10.0653 243.876 10.915L241.261 15.7516C240.412 15.2287 239.562 14.8366 238.647 14.4444C237.732 14.0522 236.817 13.9215 235.771 13.9215C234.137 13.9215 233.353 14.379 233.353 15.2287C233.353 15.6209 233.483 15.8823 233.81 16.1437C234.072 16.4052 234.529 16.6013 234.987 16.732C235.51 16.9281 236.032 17.0588 236.686 17.2549C237.34 17.4509 238.059 17.647 238.778 17.9085C239.889 18.3006 240.804 18.6928 241.523 19.1503C242.242 19.6078 242.764 20.1307 243.222 20.6535C243.68 21.1764 243.941 21.83 244.072 22.4836C244.202 23.1372 244.333 23.8562 244.333 24.5751C244.333 25.8823 244.006 26.9934 243.418 27.9084C242.83 28.8235 242.046 29.5424 241.065 30.0653C240.085 30.5882 239.039 30.9803 237.863 31.2418C236.686 31.5032 235.51 31.5686 234.333 31.5686C232.438 31.5686 230.608 31.3071 228.778 30.7843C226.947 30.2614 225.444 29.5424 224.333 28.562L227.601 23.5947Z" fill="#1D1D1B"/>
<path d="M153.875 25.3594C157.341 25.3594 160.15 22.5502 160.15 19.0849C160.15 15.6196 157.341 12.8104 153.875 12.8104C150.41 12.8104 147.601 15.6196 147.601 19.0849C147.601 22.5502 150.41 25.3594 153.875 25.3594Z" fill="#D1087F"/>
</svg>
